<mxfile host="app.diagrams.net" agent="Mozilla/5.0 (Windows NT 10.0; Win64; x64; rv:130.0) Gecko/20100101 Firefox/130.0" version="24.7.13">
  <diagram name="Seite-1" id="kNsfqHslcXAD3HUYC9yl">
    <mxGraphModel dx="4608" dy="1106" grid="1" gridSize="10" guides="1" tooltips="1" connect="1" arrows="1" fold="1" page="1" pageScale="1" pageWidth="827" pageHeight="1169" math="0" shadow="0">
      <root>
        <mxCell id="0" />
        <mxCell id="1" parent="0" />
        <mxCell id="UxzNV3jaF2v7hfYQcQ_6-1" value="" style="shape=image;verticalLabelPosition=bottom;labelBackgroundColor=default;verticalAlign=top;aspect=fixed;imageAspect=0;image=data:image/jpeg,/9j/4AAQSkZJRgABAQAAAQABAAD/2wCEAAUFBQkGCQkJCQwTDg4MDg4ZEg4SEBcOEBAXEBcXEBQXFBQaFxMTFxoUFxgjGBwZHxoYIRgjGCMiIiQnKCMXJzUBCQkFCQkJDAkJEyEXDhoiHAwYKSIoGiIkIiIZLCIoISIUIyIaHx8aGhwYHCIaJCQjDhkkIRcvGRoXIiEnHxckKv/CABEIAugDKQMBIgACEQEDEQH/xAAvAAEAAQUBAQAAAAAAAAAAAAAAAgEDBAUGBwgBAQEAAAAAAAAAAAAAAAAAAAAB/9oADAMBAAIQAxAAAAD7LAAAAAAAAAAAAAAAAAAAAAAAAAAAAAU4w6XR8ThnoOd5dkHs9PKupOsrprxs1KgAAAAAAAAAAAAAAAAAAAAAAAAAAAAAAAAAAAAAAAAAAAAoc359tebJUUKqBm4VDuc/hemOg6HgulNyAAAAAAAAAAAAAAAAAAAAAAAAAAAAAAAAAAAAAAAAAAABhZusPL9blYoUFUQUFdxprh09cayetV5/oAAAAAAAAAAAAAAAAAAAAAAAAAAAAAAAAAAAAAAAAAAABrNnpjyvHv4wUBQChVQbmONdOl9C8j9cAAAAAAAAAAAAAAAAAAAAAAAAAAAAAAAAAAAAAAAAAAAGm3OlPKsbJxiigrRQrREkiMnOwc0r7N4v7QAAAAAAAAAAAAAAAAAAAAAAAAAAAAAAAAAAAAAAAAAAANTttOeT41/GBEKUJRUKojMzMHMJ+0eMezgAAAAAAAAAAAAAAAAAAAAAAAAAAAAAAAAAAAAAAAAAADT7jRnlGPfxhSgUUCgqoMrMw8syPZfG/ZAAAAAAAAAAAAAAAAAAAAAAAAAAAAAAAAAAAAAAAAAAABptzpDyXGvWClFCtFBRQqoMzLwsszPZPHvYQAAAAAAAAAAAAAAAAAAAAAAAAAAAAAAAAAAAAAAAAAABo95ojySxfxyNFCtFApQKDLzMLLNn7B5D68AAAAAAAAAAAAAAAAAAAAAAAAAAAAAAAAAAAAAAAAAAANJu9AeS41/HKUUKxRJRRJUpEz8nEyjc+u+R+uAAAAAAAAAAAAAAAAAAAAAAAAAAAAAAAAAAAAAAAAAAADQb/QHkWPfxhREIhFElGlDPzMHMN5655J62AAAAAAAAAAAAAAAAAAAAAAAAAAAAAAAAAAAAAAAAAAAOd6LnDyTHu2SMUQiEVAiM/Lwss6L1ryf1gAAAAAAAAAAAAAAAAMPCNy0czcsC4ZbWwNqAAAAAAAAAAAAAAAAAAAAAABz3Q84eP2btgjFEKRK0pQqjE2GXhZh1fqnl3qIAAAAAAAAAAAAAAAwsjTkIXIlu3ctkZ2qGbbwamZ03E5B1ylQAAAAAAAAAAAAAAAAAAAABzvRc4eOWLtgjRAUpArSFC5ClDY52v2B1/qPmHp4AAAAAAAAAAAAAABha/MxCEESlq7AtRrApiZlkxrdi0df0Pl/p5UAAAAAAAAAAAAAAAAAAAADmOn5U8fsXLBSFbZW3SJWkaE6RgbPZ6fcHZen+Y+nAAAAAAAAAAAAAAAGsxsnGMegAQxc3HLSg1Wu3vOE+4893J6aAAAAAAAAAAAAAAAAAAAABy3U8oeN2K44twgXI2ol1ZE6QqbHdaTdHbem+a+lAAAAAAAAAAAAAAAGvw87BMYAClRgVlEpzHUaE0q1A9yrYvgAAAAAAAAAAAAAAAAAAADjd7zR43g+ua08uj3WmOdlPWmew5mUsyNrvuc6I7v0rzz0MAAAAAAAAAAAAAAAw8DZa4xAAAYtu7aGp22rOVjKB7Pm6vaAAAAAAAAAAAAAAAAAAAwS9qa4BZ1+VjGBjbCwa+3sIGuwN7Q4HQ+uDxOfrPOHPdRoNwek+i+deigAAAAAAAAAAAAAAGJgbLWGKAADGtXrI1uy15yNu5bPX9tpN2AAAAAAAAAAAAAAAACgt28YYsrJaxsiwYljNsmJay7ZiQy4GOvixO7cLN+5fKMrLLHU6jJM9ZulQAAAAAAAAAAAAAWtTt9SYtJRAAMezfxiWBn4Jx0J2z1ff890IAAAAAAAAAAAAAAAUsk8daFm7bLVu7AsWcmBiW8mBi28uBixyomOyBYuXbhbvyvDKt3yd+3eJzjMlchUkAAAAAAAAAAAAC3qtzpjFjWgABZxMvFJYWbhnG2rtk9O6nkutAAAAAAAAAAAAABErS0Fq5bI0kLcLsSzG7QsW78DGpkQMeOTExmSMZkjHuXZlu7O4JLovQmTnCZIqSUqAAAAAAAAAAAANNuNOYsZwAALWJmYRPEybBxVi/YPSuu4ntgAAAAAAAAAAAAtUK0ClJUKUlQtpi3GdC3G7AtL1CxDJiY68LK8LK9UsyuyLcp1KTrMVlIpJUTjIAAAAAAAAAAAAApp9vqDGhOAABbws3CFq7aOKxsrFPQO54HvgAAAAAAAAApEmgIgAAARlQoqIUmLSYt0u0LVZC2mIUuVLcpCK5UhNIjJIVVFVRWlQAAAAAAUKrVoyqYVs2TEywAABptxpzHt3bQABDBz8AW7kDicTMwjuvQfNfSgAAAAAAARKxiAKqAAAAAAArQikIpC2uUIJiCdS2uCKQAVVCoqBUAAAABQrSNkvWbdsuWoWi5ZjZLl3DtHQZnM7kzQAU0+50xYtXbQABHA2GvEJxOK1+x1p1/p/l3qIAAAAKFUIF63AJRqVAAAArSpQCtJFKSiK0kIyoUqqUpKhRUKSoUqqUSEUhFIEhSoUqAAAAoVpG0XbULRct27ZO3btly1C0XLULZcsxtk8rWjtcrketKgafcakxrN+wAANdsdcKVocXq9rqTqfV/IvXQAApEnSxAv241KShMASjUkoK0VAAABUpUK0qKVrQAFSiooqKVVKK1KK0FQpUAAAAAClonbhbJ2oWy5at2y5btQJ27cCdqFouQtwJwtwJQjbM3quI2p3KlRq9prDEsX7AAA12x1wjKJx2o3OlN/7F4r7UFq0ZVnGiX7cBKUJFa0EpQqSrCRUElKitBUAAqKgArSoKlFRSoAAVpUUrSoAAAAAAUtl21agTt27Zct2oE7du2ThbgVhbgTt28EzNRyGAWd/b5U9TyeN6IzY0gTycK6ei5mg341mz15hY+TjAADX7DAIUDk9Fv8AnzY+weMetGVCzUvVt1LyFScoVLiFSVYVJVjUnWFSVYVJVhIkjUqoK1jUqoK1jUqoK1jUkoKgVpUUqAAAAAABAlbtwJ27dsnbhaLlu3AlC1AnC3bLlqOKZGNzHPG302/yDGt5GKY9ucDTdFzu6Orpr84VoOq6/hO7GDnYZr8bJxgABg52EWVRy3O9JzZP1Pyj0k2UtfdM2eJMzJYlwyZY0jInjVMmuPIv1x5lydkXZWhdlYF6tqpcW6lxbF5ATrAXFuRKsKkqwqTQqSRE6xEkZBQVUqAEYF21bgTt27ZchagTt27Zct27ZctRtE7cbRcsavjjpuVz90avYzFuM4FnFysUxYSiafcanaGw3nMdOCRt/QOA78Y2TiGvxcvEAAGFm4ZaBzXL9Vyo7/z3eHX3tLtDLu27pK5CROUZEq0qVrGpKUalxCRJQSrCpNCpKsKk0RNCpNETlATrbqTQqXJQqSRqSUEqxEqwqSrCBONuBO3btlyFqBOFqBOFq2XLcLZctwtly1i8YdbxVrpDQ7vzzzSPoXY6za1GlaFu3ctlnFycYxYXLZqdnphveo886ov02+YdV0Fi+MbJxzW4mVigADEy8Qsg57k+v48hu9H0Js8uGUTz8K6bK7rskyZUuEazqW5SqUSEZVBUEqFK1qUSEa1FKpEUgVFKqiqRUCtKlQVUoVpagXbduBchagThagXLULRchbtly3CBO3Y506DldPuTSdFXUHQ850mtPnXE2Gpj6Z2es2lRjOBahcgY+NLnTbwuRNRs9ZtSXZcz2Ja2+B1htALdyhpsXLxSIAGLlYxjg0fF9tw5HTbTjD2DpPNd8dpc028JXL8y1erIu3saZfrS8WmSMdkUMdkULS8LFLwtVu0LS6LU5SLVbgtVnUt1uC3WYikI1UCECULcCUbUScLdsuW4WyUIWycIQJQt602Wj5bIMbP3PJHUc95NlnoeXZvnUazZ6w+Sek859Kj6K2+m3FUjLnTc+IeJ606L2bzb1g72srRqNxgbU3fR02hTp6SAEJ0NPi5WIUAAxsnHMYGn4Lv/AD4xvM/SeOOp3vnmWep77kss7TZclszp66HPNmt3SiovXsQbGOHfL9aSKRmIpDTWNjoTZ7nk9mbiNyhBoOgK0mIpBSsSMaWy5C3bJQhbJW42ydqlonbhAnbhAnCGKZOFyWvMiHQYZsNRqsI4Hy5jm56Xlduek915H68dLqtrqTy7j/HfU4+itzpd3VPF/aOFPAu67vpzQdJo94WdJn2zP6/L7o1O5qAAEZUNPi5WMQAAx8iwYoNX516N5wYvnPo3hBuPbuI7U13G+bfTB1eNrPDT6VztbZOlyubyzpsrnck3NcDNJqVF6yNi18zNY98rSoikNDg9XYPO+95vVHo9eO6cyqQgStxtkrcbZO1G2Tt24ErcbZKELZOEMcv4+h5g3mj2+cWZcV56es4+JsBoM350Ob2WnzTot3y+/O39b8m9ZOk0W98qj5c9R4X2ZfXt5q9pZTA2GnNZb3mvNhzU/UDgPXOgqUqAAAAoafGycYgABZvWTFpOBrvN/S/NTC8s9S5c63yHrNebT2Gz5Gch6/539ImH83bbPPXNpnfNh9B5vnXopnZXHbk6HM5vON7XT5ploTK1oL2Vr6GxYeWVUqUjKJqOb7WBWEbROFuBWFuBOFu2Shbtly3C2XLWt4k67kZ9Cafc6jUFzw7pfHzdbrn9qeodD5H6aQ+Y/pn5kJ5UujNFuMjJO19f8o9YOi819KwDie3lqTb5Wvyi9q9FvTn+47vdFu4AAAAAAGrw9rrTHAAtXbZixkMHzP07zM13Cd54Ac59b+c+jGDxvmP0ydR5x1nkxx/1nrNIcl5joPr42Hi/afMZ6J9GYXLGdvflb6nMrP5TJOpyudyjpLuiyDasXJKkCU7Nk2EddeL9u3bLlu3bLluFslbhbLluFsnaxeOOu4nA6Q0HS2eDO30ul3BjZeJxp5JorNo6DdcvvDpfTfL/AFIxPEPffGymRte8OQ77dbIwN1n3TH0GRsDX7HX6syLnfd6cz06oAAAAAAABTUbjENPHJxygFu5bMVKhiea+mebmn4fvNQdB436DzUm49ej4tbyHtvnX0ZJifP2s6O31jdbH50OF+ktV6Uav5I6rsDu+k2fy2aL6T8196NZqfDOrPZci5w56Fkc9dOmyOezjPtQgIVsGUwpl+3C2XLduBKEIEuS3vCmDvMjWG64bhPJDu8TQbI7r1Dw/0U6T5l+m/mY5+NdkY+zzb5s/YvEfbSei7q8Yey2sieZyXWha5E6Tmt36kcJ6XmVKVAAAAAAAAAADVY+91Jg0yoFmzk2jHjegYHnfe8Oarmei+fjJ+mOR6eTXee8H9Qm7zLd23mujrI8J4T6fvGy8M6r5xPZPddbyByXnuy+jjP8AGuy+YzN+wNdpzlPHOa+vja85sflw+o9pz+2N7e5bfl21exCsI2zJjizJwhElbpbNfot7oTnbuPyh55xOozjfbTn9ub/tOJ7g7z5m+mvHDltje3hpui7PpjT7rYbs1e3kMDB3WnM/RYvoxwPq/USKKgAAAAAAAAAAAADVWd1YNVbyrJjWsjzQ3vK85jnmG2w/di789dJoT0b0+ngR9J3sHOPK9ZxPvZl7rzvqza4G2Gi+RPtfTnPdJt/lEp9CeVe/mH8ldJ6MZfo2Z87HCescV9QFj5e7DzQ9i9Wn58emR5jrTVUnjFUIF6EAQoW+a6bmzl/NvSPlghSVS7soXzfeh+Uemno/kvrNTkuyyt0anfWpmYpEnhc3tDU9Z3vQGDnAAAAAAAAAAAAAAAAAs3hwnL+x2z5n5v6R5w8t3+VzBzHrnIdScF5P61351F+xfPK/VrGIZ3BdRojtL/M9MYfLc4PWMHzTojuPEvbKnyN9c2eYOO43zv63Nxw/QfNZofr3W7c0nxv1vtR13UQ4o9C0e81JYhSJJChWlKFdLuNccP8AKv1V89nPdZsrhiXt53hxHom62Jp+j2GSQ1O505rOiwdAbDH7r0I5XsJAAAAAAAAAAAAAAAAAAAABSo5/nvQR5HyXuWmPHOo6vlzb5fCbc1PQZeCbLZcduDoaUGh6nn9mcX0uq6M4HbdkK+Veq6w4D0LO+YDi/auG+opIfL/SeeHs/rMPLK47n+D+z1zrmLtTlihWEolAMTLsHnnjHs/EHP8AcdNsjH2G02BYzaVK1jx51HK5/qx5/wCmbkAAAAAAAAAAAAAAAAAAAAAAAAAR0W/HHc36pqjx696NpDBuaGydvLRbIyuW6bhzR9Zt5G7l5puzsK0404znfM/rU2vm3VeFp5n9qafZLqPjnafRsnUbDZ/Ih6J9AfPP0BbrsPa6spSQtkikdYONy7/RGv2uJzxsdhKptee1vdHFen9fkCoAAAAAAAAAAAAAAAAAAAAAAAAAAAANfsBzer7e2eQa71bAOPuXOfOj3HJ7s20ce8XvNfRrZ5/3Gb8qHO+68X9Hpa+f7HMx6l7Fb8qrhOY673suV1O1W/pNlxx0FNDMysHabQwp5mGaq/bvFuvM3zG6D0HqjR7xUAAAAAAAAAAAAAAAAAAAAAAAAAAAAAAAAUqNNgdRQ845n1zWHnO92XLHSX+H3h41599BdKbryXdfLBl/aukyDTfJVPqZOmnsvjo9f9p8r9ZMnU7XXraXaFqdy4Q0m/8AITcYPY+pHG97KoAAAAAAAAAAAAAAAAAAAAAAAAAAAAAAAAAAAABhazoBx3Ler6g8l2va84aXEnfN98ifVPLHJ+8Y3AHik+y9kJ9HoujMHHyaGOyKlrJv7o5Xa9IAAAAAAAAAAAAAAAAAAAAAAAAAAAAAAAAAAAAAAAAAGs2Y5nSeg4R5Hj+nYhxmRtbRpsroNiRrcumEzrhr9ptJFKgAAAAAAAAAAAAAAAAAAAAAAAAAAAAAAAAAAAAAAAAAAAAiGutAvhdBlVCoAAAAAAAAAAAAAAAAAAAAAAAAAP/EAC8QAAEDAgQFAwQDAQEBAAAAAAEAAgMEERASITEFEyAwMjNQYCJBQlEUI0BScWH/2gAIAQEAAQgC98dUAL+QV/IchU/sPDtrrN8fklzIyfrMVdB5TZE2W+9019vjs7/snuv1Nf8Atr8GSZfjkrtz2GuQcrqCT7fGpTZpUnZY5XQdY3QN/jNR4p+/ZBtjSv0t8ZqfFO3PaYdMKV1nfGanZP3PajKKiNnN+M1Hin7ntM3TkzcfGanxT9z2m7hOTNx8ZqvFO3PaZunJm4+M1WwTtz2mbpyj8m/GarYJ257TN05R+TfjNV4hO3PaZunKLyb8ZqvEJ257TN05Q+TfjNXsE7c9pm6Kh82/GavxCdue0zdFQebfjNVsE7c9pm6Kp/Nvxmr2Cdue0zdFU3qN+M1ewTtz2mboqm9Rvxmr2CO57TN0VTeo34zV7BHc9pmFL6jfjNXsEdz2mIqk9QfGavYI7ntMwpPUHtF/cazYI7ntMwo/UHsRci9ZlnWdXV1dB1/b6zYI7ntMwovP2F7uq6vhmsmuze3VmwR3PaZ98KLz9gJ7N8GPyn26s2aj9+0z74UXn7A/uU8n4+21mzUfv2mffCh8/YHb9ko4B1k12YX9srNmo/ftM++FD5+wO7TsaR9wR7ZWnRqP37TMKHzPsDt+s4lHCndZ49srdmo/ftM++FD5H2B+/bfgD7ZX7NRuiVdXV1fpZ98KDyPsD9+wcZMYdWt9punSJxuiiE6FpRpv06Jwwurq+DMKDyd7BJv2DjJjB6bfaC5Eooo9Log5Opf06JzVdXTDhw/d3sEnYOMmNP6bfZrolFHrsrKysnQNcnUX/PJezdcO3d7A/sHGTGl9MeykolX74CMTXbwRCK9v98nYOL8aU/1j3W2Axv8A7n9g4vxo/D4xJ2Di9HCi8PYb+7v7BxejhReJ/wB9/eX7dg4vRwofF3+2/vb9uwcXJ2FBs74w7sHFydhQ/l/pv7+7sHFydhQfl8Nus3aPYOJTsKH8viGZX6z2DiU/Cg3d8Kv13Qd2D1HEp+FD5H4RftXUb+s9p+FD5/E7pjs3Ue0/Ci9T4o11tVv0ntSYUfqdm6v8KCgd9ugo9qTCk9QfFWusb9BR7UmFL6jei/wl8oaE7iDFHUB/iH36QojduLt0e1LhT+o1XV1f4QXp1Vm0ZyL6vUkeX62sddNdfoCpjuMXduXCLzar/CC5SVP2HKdJ6lrbYw6aIG3TAfqxdv25cGeQ95v3iVLUhmiyvl8msDNBgcfyOEZ6IfIYv7BxlwbuFdXV/gRKlnEe95JVHE2PboOJ8sGb9EW7cZN0es4y/BnyhouTK+XwjhDNes4u8sB0Uv1OvjJ2DjLiDf4C59kagyaRtp9bvJTHE5geo4u8sQnS20HKLvOnFhi/sHGbEIOQPvpcn1VzlYIC/WTZT8SZHoHVDp/JnlJ1nGRuYrllf2BBjn7tYGaBNFgMX9g4zYhDAFA+8kqWpDdFy3S+o1gaLBVLM4so+DfyZJMsbbWCZ5SdZxPliBhE256H9g4y4sQ6b+6k2U1QI9/7Jd2RNj2c8M3bIS4YSfZDiEtM+Xl09zluzeTqe4NFy2oDzph+RwYLnGJth0Sdg4y4wPIumTfsa9qysre13UkwZqc8kvjHA2NE5dSZs3jZM8hg/wCyl9R6pvJqi/PoJsqvjTGaRMqXzE56c3IxZqThCPvgxubpk7BxlxjfZzk1101NkQcD139sunyBup57pPTZTgHMVNVtYpKpzyoJcumDPIYP+yfMOY+9KPrYofyxqqgU7C81NbLVeTKQuUdOG7UkJ3wcbBRDRAXTW2QbdBtul23YOMqOETiZZLhAkJr0EHIP67q/ZlmEW+d5TZgTlP8AsL06pz6RiC+sidMPtW1jmuyrMXalpUTtQv5OZwAZ5DB/2VJSQSxzOfSerGoNjjxlheIwIqcNUcBeo6ZsersJTezUBZQxW1QYgLdT9uwcZUcB5lSyfZUrnE4N/wDgf+wb4B6v15uuanEtlJTvktmNRY8tkcbgbuwFSPu1wcLj/KXKSq+zeS6T1QLaB8oanEu3e7ltJU8/PdmQQQUPkFH5YP8AsnG5cFw83ljUHjjWwmTLaGit5FwYNHXNkNlJIGKGM+Toae+pDLdh23YOMiOEz8jimfUoo8gsqmbIFRT8/wAFcFAkIPGAcg7rus3U+Jr/ACa22ieWxXcs7zq8zgFmX6Gf5C5S1IZosj5vNkYYLBzw3dzy5AWwq/SkQQQTVD5BR+WEv2VtVw71o1T+Axe/KnElNYTdBtt3VGY2jgpdbqOnDd+yewcZE7CsP9pVFDlGYvfkCqZDUv5TaSnEDQBPLywoannSFjWNIABdI0Gx/wDM/wCwbq6zq/XfrMDXHMZ4HukDh6b7BtZqGkytbv37qWoEe95JVHC2PYkN3mrcu3PLimSZ9lNJymucqirfNiCmlQeQUXlhxOp5IFmNLlTU5hIcYWZGgHBzbuTY7KSoaz6RyHzepFSWTWBu3aPYOMidg+DNPcgquqzs3hdFyhmLnZBdV9SXHI3htEKdqlkEYupau8oaKZha3WR4j3aQ7bMQg4HAOQd13V+p8TX7yghv9bKUOF3926klDdTzXy+EcAZrhNVBjS5TVrpNgUHKCVrGm8UnMuqz0nr/AMVkE0qm8govLCsibKQTBTZfFkbYxo1+bbCSZsXl/ZOqejy7Rwhm3+Q4vTsHeammGygpw9yGir6y23CqIuPNfsuI1tlwmht/Y8mwueIV1jpQMcfrLjlFyyZki1C5mAKzdd1n6L99z7I1Bk0ibBrmenTfYH6vLiE7cpjQQQQVL4lV3ovW6YzNsyMNylZFy1SQOabqLyOHKaDmWe97a5XXj+5TiG6nnPl9KCj1uo4AP8BR6ji/ZPwqn5CmA1cgChj5YsKibKLJsImIsxuUWFfVhmioKV1TJzHhuXRcQqw0FcOpDUv5rwLLiNYGgrhwkqNXL+Uy9kP2M5G4dfAPV+q6zd8vT6q+jBAX6yWTpAESXbjc4Vx/uegggmqm8VXei9Mg2zN/GwYmQF6jgDMI2WuU51k598yjvZyazKnVNzljZSl5vIymt5W/wvR6ji9P3w4u45mtHDqXktT35Aql5qpOU2kpxA0BTzcsJuWfaCLlNsqyp5LUI3VsgUMXKFhWVHLFlGw10qhiEQsKyoyCypZZJ5Dlij5bQ1TVDYzYsc2Ta5CD8MyDuu/bLlLUgaLlul9RrQ3QOeGqas+wgdmbgNyqmvbFcCSQyuL0CgU0pipvFVJtG5AJkebaOmA3Qjug22DtyFk/clQ2PRcl83qQ0tgmxhu3+I9ZxdspN8JYM8rXEaBV9Zb6W8LouSLlz8gua+pc85GcNohAwKWXli6/ktleQqSDli6ml5Tbqpe+pdlbQUggYFPNyhdVMpqX8ttBSCBgU8vKF1PVPklyspIMgzGWQRi5jqWSK1lntuHXwzdV+zNUBi/sl3ZGI9ibb1FcI1JVOkTSmzm1ghuVWerJiE0phVN4qpF2FRUn/QaG7Bl0GhvRJK2PV15J9qejt4shDP8AM4dl2yfvh+Slf9hTUYc+5Gi4jXZAuE0J9WTZVlY6c/Twigy/W5zsouamvaX/AFUlPmOcudlFzXVTpCQ3hVBkGZznBup4lXfrhPD8gzOJtqeJVy4bA94BkKFY2+ujtRchB4wv0363uygpjLfUUZf1xCdzMoCCCaVHOXushuVV+rJg1lzYNZbVFt0GkKmFmaoC6bHZSPyBSONzgTbU890ukUNHrdMpwN/9BHYenYOfluVE91VL9MTMgsp5fxDaISPTW5RYJ9HG5NaGiw4jWEnls4fQc2XO4Cy4jXtYqRv8mxAFtuI1f4t4dQGV/MeBbRcRrA0Lh1IamTmva0NFhxCrDAQuH82pcSmR5BYTVQjNlHK2XYXCBv3JdsNy664hO2RzcoQQQVL5IblVLbyyJsIGXMNgFkUcBeo4GsW6bF+1L4lO/s2ayyfU65WNpjIbyR037At/qIv2JEVIcqrJjK7lMoaUQNCllyBSPNVJkbTw8sdL4Wv3iiEYsOI1RiGVraQ1Mjc0MQiaGivqhELKkmFT4xRcoWVbUcsWAgdVSC8EIiaAquo5QsjetkyilpxC2yqJ+UEKt0suVlLBkFzK8Ri6jlEmwd25NkF93qv9FyCCCBTVS+SG5UpDZHFoao4y7aOmA3TY7oC2J1Us7YtFy3zecNJYJsYbt/sIuiLdUhTnWVbWb5eF0WUZ3E5dVX1ZJyt4bRCBqc8MFzhV1xYbNg4kXeUcofsnNDt44GsNxUzclhcp2vqL5uH0YpmBVEwhbdNrhLIWqlgyfUZpeULqsdJUGw4bRCBoKkeGC54hVmR2RvC6DlC5c7KLniPENdKBjnWcU03R7JQQ3eq+pYWmNf8AtkECmlUu6G5Tm3e5R0n/AEBbYMJQaB0PkEYu7PJN409HbxZAGewuYsqsjoqniDYjZfyc6lZzG2TKB2YXaLaKurPxbwqkLzzX7LiVbZM2GFUPqcoKMRtAU0Zj1EMnMaD0fx2XurqrmkqHLhHDwz6y52XU13EhnCpIOZ9R2XEKpz/HhfDtc7rWXE68MC4bRmd/Ne1uUWFZV5NBBLzBdA3RFu1939DGZjZZUNFRG7kNygwN2DbpsdkZA2yYbjC9kagyaRRUmtyyntv7I+LMpIHBOYHaF/Dx+B5kPkycFeQsncP/AFGwMAAr6wM+kUNI6plzvGFfT3+sRPztBUrbhUejnhNcHbJ7wwXLOIQPOXB8LX7gW0XE53k5G0NDzZcxa3KLDiVcIwQqJ/8AKAyxsDBYV1TlGVrKV1TIM0MIiFlV1HKCc51dJlFLT8pqGicOy7dfd+GVCEN89SGoMUdMXqKBsabqXIRftF92XTG5tExuUAJ9SAcrRTul9WOl/Ybbb2d8LXJ9MRsQn0bXIwyRJk/7D1JQA6tpoRC22Nw5Mby9ppwAqRjhmc6Gm5TnOCqYzUS8tHh7GKMPZ6bK0fm1wdqCM27Iwzatn5TdHwGqc0KmpxA2yqZ+SFFWiaQtFNBk1M0oiF1WmWoNlwygEDQnuDQSaeq5rnBNKeLHsPX3ehFoXIWbmyBqZGXbR0wbumx3TWhu2DIzpeWdse+WSfygpMo0bEGe2OaHbupv05pbu+Bsm7qVzPFspHk2S6BQWYsaWjmnVZg4kIDGMWmdg4ct6dGH7uoy3WOnlkJyyLips1q4dS5G53SSCMXPEax0zuWzhXDxC25c7Lqa/iNnhUsPN1K4pxDKFwmnkLuYW6FSDTsPX3etySmtuo6X/oC2wYXJrAOh7wwXdzJJvCnowNmQhvuLoQU6MtTmB27qT/m7o/Jst1uns3yn6VASb3wlB0c2OUSC4n1IQ6JIWyWzE2XE68m+ThHDvzeuKV4YFwuhdM7mva3KLDiNaIwQqSB1dJndFEIxZFb9hy+71HTE7sYGbAX2bF+weg1JebRR0lzd7Kf/AKt7o6IFGMhEJ9KDsWPjTZkHJoA2xlpw/UZZoVHWsOjuivrWt+lRQCYizGBgsOIVgjGUU9O+tlu+GIRCyrKnlNRzV8lhSUwgaFPNygqCu5s72Jmyfv1lDd+Ai/dw1OeXBpEJuCcJKkN0HIdL6sVKmsDdvdy26MX6tZPga9GBzNmy23D7q+DI87nNkide4L4Gv3/jSRenBUlxyuVbKY2afxzUuAVPAIW2VVUcoJrmTKkp+UFPMIW3NbNJVOyN4bQiBoT3hgJPE68vORvB6Dk/UWfdS9TpQNAGOOrhEblNbZSHLqmgm4TY7KSZsW9pJ1T0eXxZEGe+WRiRFk+MP3dSkeOct3bJdObm1UTOWOnihswLh1Ly25nSyCIXNdUunfy28MoRC0FOeGC5lqmyvsaSkBOZbLidedmcK4eXnmPtl0Dd1Jt0PkDN8r5N2MDNA7bFzcwsnODBc8183p09HqmQBu/wAxApzCERfd9KPxOePds10HK+JAO5cG6nifELmw4VQW+py4pxC23C6EyHmPAtoq6sDfpTIBKRaOMRiwfO1rgxN3U8jWD6v5F/G8pXKed2Qhm2EiGDqm5yxR0mY3fHTf8AQFvghjBRjOD6ZrkYnxpsqD1fDiNfm+hnDqAyyZ3NaGiw4lXCMEKip3Vsmd0UYjFlW1QiFky9dIqanELbKonEIVE8TSZkzdP265N1JUNj0XJfN6kNLomxhu3wci6MX6tZPha/d1O5viJbbtkun0UbtoIhCLCvrRALAwvqni9LTiBqqKgQtuqiV1Y/I3h9EIGhSSCMXPEa0yuyN4XSfx47qJP6icoJX9s6p6O3iyAM+GujRaQnNDt3Uv8AzdzN2y3UkDJt4KNsRzKWURNLjW1L6m9uE8PEYzEm2p4pxLMbN4TQX+px00TRYJ3RZWT2kiwjpg3f4gYgUWEIi6fSg7Fr402VPDZRZx4cwoaaLiEcsoDWQ8GA1kADBYRDNr02QCbH+/ihYCjFg+Brk6B7NhL++auYjKmRl++3RZNjQFvjBF0YlayLQd/47F/FamxNbsrKysg26DLfHTEEYiuWVyygxWWVZPdv/8QAGxEBAAIDAQEAAAAAAAAAAAAAEQABIVBwEKD/2gAIAQIBAQgA+2h6thNmZZdxNkQfK5r/AP/EAB4RAAIBAwUAAAAAAAAAAAAAAAERQQBQcAISMWGg/9oACAEDAQEIAPbQ+crSrntDdEmIdzOkEI0O8af/xAA5EAABAQUECQIDCAIDAAAAAAABABAhMUFRESAiMAJAUFJgYYGRoRIygrHhYnBxgJDB0fGSokKg8P/aAAgBAQAJPwL/AKVFeJq/or1/WjpxNTianE1OJqfcpT8gJQ4nCn9/VeJq8TV/RkpxNTian5gLUeI385J58azXgp5oj8IhxHGgisIoP5v8uHcA/wBuI3Jw3j/Cea6hLhMW/akj6iyWc80XaXCWI+AjbykzEaD9yu0lXL0yiD4ThQR4SeaBF26P3bULS9NhZvcO9prCKTu1VkTFm8dg120bFhFTFRrO9VbxVQt43cRrJG0mzxwoPiKeam5O5VbxVQt4tki7dEE7XIW6v2Wh5QsOvD1c5I+o+GPydEO9T1XRVS2p2BDVYia0oUinnmtLpJo/fWMRoEfhEGRouykMjmqqoXNsmvi2J1mesBk1Zo6PlaNr3Ep1uqxoIrCKBrvm2l6jObK3efhTHzYLecli0tZ5KJZ1aOrDqgTrEPXpVKEfCOolYB/s36/S5JQpeoz3G2xnuENCfWlyjHmgX+AThTWuTIqJZ7tJotU9WirfUc9ycN4p5qWd19btL9GGFvM9kPQK/wDM/wAXsGj5KFnPYMSzoolkZBO5bDFv2jBYix6eouyZybBUYH1bNgdvH9k81OvUUBkQDYDYGI+EbeUm9lyyXWhxURO/zc0eo+FiNJLtr8wos6te32hvtDfbrbzQIu3RffpUz52MeaBOG6E4bBkGe4qJZ7tJRYXqbJt6tjMqJY7VP7WEUm36p11z1HOKw6NZoddiybEshcF2Jg3o0ddSi0xnfq2IMMiDmj4isWlU7GgMiTYKF2AXRsKMfqMix9l+pUCpTyIMxHwE/lJdtjTi2UTeDIm9FQoyK9oZFC2qidQrkzi19+NAsI3QhYNkRLIlRujtdCnciWTbEtjIJ2dVF+RXIKwis132NFhUK3eioMkMc1/JQu/2psNijmVUMudwfFJYtKuyXIXpZWm/swMDlJosbCjIr2hRzKtmFJsbsrWYijb9mSdy2Y5PyIUQPZOtkpsgFoo9ELPlcmqsihbzUWOtzqqRgoHK7TWHRpNCwbQCfdcTb9UHBSuT0QybDYh1bEsiWv5KDOinl1y3DeMVGp2zNR9bkWx0b4tsbEs/tTbCWZVOyBbzksWl42y7IcViCw3S5d2h1GRXtDaZVblVVmI0C/xEE4cBPsgfxUkEULCyaqyKeosnNsT4Uch5oj0EFVv/AK1nZYNHyULOBHGqfdqonwyJaX0Qd82x+WRhFJ3nJw3inmp4Oi3opsLkGRLdEnotED8StPsLF3neHqPhYj44JdlQkG+0NNtmU80ChuhOHCDmRKgoshMtiVHSycA8odeETxQ5r2wmjxE+7DiUfdB//8QAKxAAAgECAwcEAwEBAAAAAAAAAAERITEQQVEgMGFxgZGhULHB8EBg0eHx/9oACAEBAAE/IfW5LXUeWjlCsheH7BtwOpVvc0HXIkz+CWrEuJUpRlt3DDSnP65FT1LBW99qAZTJJnB/rbcVOaN7iKjtjM70/WxNVLTczdMD1JkR01+st5oubmQnhJI7ZfrNrnu5JyElB1/WWnr3YqNFxIuK/WVhOe7FgvG76/WUo57wS88tfrNjnu5YLzz1+s+du5ZLjwH6z527lkuPGfrKdzeAuPOX6z5m8FceUv1nyjyN17ReV8z9Z8g8jde0Xnn/AKy/ePIHufaLjy/1pvI3MntF55H6ykc48jde0XHkfrPnHmbq9yLj3n6z5x5m6vfIbPefrKd88zdXvB7n9ZXvj9zdPVjZ7j9Z+WeZur3gnYfoSUMJicWAxSK9PeWeZuZM+Fnk/QZaIexIjUNiZpQpJXp3nnmD2ZJJwfB7b9AiW4mMDZVBOar03zC7mHsTt3vvQL9wx0GxszHT01Y5xdzDeEk7M43uvQHlsG8Y2EGGxjprIQhM/TPKZdzDwZOM4TjXub0C5j2Wp2FGxs4A/PpncmXcwxjJJJ2M4vQYvD2lxWhRhz7T0ynnMevMNjZO4l6Fg9p7FGEDT0E5j0tu4ys6O+hBgeIknYkeN6DPdFxZtcHpLVDzPYJMjJPgzmMhJjYEmcR4noCB7qo8G7PpE2E2I0NEEFyRrS4LEvCZ469AuQ91sHg0+jLjgMMMY0NDRGyF5Q0K3wVw8NegXj3WweFXV9HBhsYxoY0QQQQQQJCWJo5mdgnP56VW72jw7w/Q5GxsYxjQ1g0MggggggSEEsCEIT+bl3eweFac36E2NkjwYxjwZBBBBBAkJCQhIQhfnZN3sLsL3N6BIxOLxYxkEEEEEEEECQkJCEhfnrTd7C/B/wA6SOW3BGDxggggggggSEQLBegz3Owvwb80OW7jCMIIIIIIIIIIwXoY9ztLsPK/LknfxhBBBBBBGEYwR+fbg9qzGwuw+P0hG5jYggj0Gx4PasxsL8H9v4876NmCCCCMIII9GLHg9qzG0vweHyr8WfxI3MYR+PI2SSSIKe3Y8HtWY2F2DdpelRswQR+RIw2NjY2SSI6m092WF2Fl+Akbn1dhsbGxsbGyRskQyXvTxdi/C7zb6SfV5GxsbGxsbGxskbGyRSIkZreHiy/D3m8n1iRsbGxsbGxsbGxskbGSJwS4CcJWw9u8WXYUJyf6ESSSNjY2NjY2NjY2NkjZOEjl3t2LnurL8Hjq+23JJJPq0jZI2SNjY2NjY2NjZJODewmRWwve7X4e+9tk2ST6vI2NjZI2NjY2NjY2NjY2PDbSWrJF2WsUFMgrFJI0oh+GNzcHjdg8c3YUk+ryNkjY2NjY2NjY2NjY2NilPAc8M+heuYpU/hZOSGTbLV1qQ0yITi+wVzHtvZvHJYJJ9XkbGxsbGxsbJGyRsbJJEIWn09lzdi8kXI6tRKkJCGPC7pZKkTnGSLYz23s37qJJJJJJ2J25J/HW/kYbGxsbGxsbGyRskbJIStKtasxn/FqvmF0MLB4HhbCSLlsNi3j27tnRzlsCSRMkknCScJJJ2ZJJJJwn8uRskbGxsbGxsbJGxskkShdLxwu3yQ7f5X8LJ65vrsPA8PbWDxsG7+7F2zV0SJieEkkkkkkkkkk4ThO5knGfxZJGxsbGxsbGxsbJHhJMiGroWH3joG3e6v8AwjYY8DwscsHhzsOotVLG9D27tqiwQhfmyTjO8kkkkkkbGxsbGxsbGxskbEpM01yH3VFF/orqi7LkrISp4dEubsh6rDfKuyx4HhY5Y2Cmj4b5eQq154bf6T7VMco9u7aOPFsgXpck4SNjY2NjZI2NkkjZIkRA8ryMYdF0XpmUojovgmnw5lF9LIZKVNNE6H1uGyx4HhmLVFVEdupDI+MhWp8Yq5vLoKIYRBFNMVtuL9k8KEDFgr0mSSSSRskbGxskbGySSEbR78+uhpzouq7EJMLRWwuKJk8snOXlBNZVnltljwPC50wRAQRfDYtW7rgysQSEhCEJIIIII3EfkyMkkbGxskbJGyR4qjPV2WrdCLrhr+byFELHyXhHuJSITnn/AJhZyfZihSu0/wBJCXStrTJUwtSAJTUYhV5mEAJCRWNdjJvNjYxi8xLYOrMEhIggTgTII2BBBBBBGEbUYRhBGEblskkkbJGxsknYcBXRPfkZB3zyWRWEpa7VbqJSSFqPZqiM3ftl1FGt3q6s9z7YfbyGEq+xUu++uwhG24SzyJX2h/owmuR0UposIMRUOLwvhInbNm82NjVOLFigfnXCIwggjBFOSCCMII2Y3UEbhkjeEkkkjY8ZHAQNkLVj0N0uizJM/cpocRLR9X8K7KK7u/TJGXVZVw8Z4XfSxBWj+p9rzLPprj0f2ryQ8tcp/orro+2R8zzYo52IJJ8CANaER0h4ixsru2zAxUpRSRLYLdyqo5CGKu0nQtyiszslWxf3VTJkNFr2dhKdzGzI2NjwZJJJJOwhDGcp0L1zJ64QyckJCFK3hdTW2E+Cnh/ZJEkvUgEqQlaM3F7Twv5n7IeHO5yK07BqxVU0Mil6v4Qyop4ia57F7YTEZ3ISReCe/wCEDZhbE75kBjWRCQ+bDcgsJtGqJXtTAtQq7UkdLCZDJERmSDGI47Qv9JNm9FExfcN6P2X8C82Vtzg2SMY2SNj2ZwEJxdkXNkmZFyOrUWsELRDGL6F/8LvhaPnUU3VGUGy1Fqcth+SWeT+ML+f4DJBw2pNL4DvfxU/mryIq7R4S2mmSio6GVWr4QqSRoKZd3ZalR/AGUAjcLmD3O0vGTkZukqsKWglynmPaZKudmJCfhOqOJDHDBqEvbTiTaSxIIVJkM6s6ZZEdF2dwuIXEemZLIpPynZbGx4MkbGxkjY2SSSIRW1eaGacWr1ZBGEXlfK7fJFGt+r5CaFhRzIww4x5p7zB4f3yKm5sTsz3mKb6k25o6EJx/0Fy0tZsY6dzyeoxzVM9OWhXa37bq14Pc7S4Y1C/4aCZMxHt5xZUHPWStOMowmXFWXNBSqsLSEWCZC1CR7ScC267Ka1t2H+pEo9OhKY+lVZ7Du2kzzIoy1wkknBjY2NjGxsbHjI4iqYuF2+hl/lfwUU3zzfNiyWhC6KPP04lSdFNazPNipvJglqpjYp7caVuoqCe1VHI8o4jxJKW8rszWSCvNkDLuSx5P5VJLczeFpI88nProK406HUWilcAIISN3a8Hudhcxk3aS6iBSxTNa3A7mgmQf45BZbuSn0GyJbrwPETQTS8COX7CvK4o1CHtpxK9q3+tn3uUeUdavuVZMx3QqJIkkbGxsbGxsbGxskcLiWSGrHae8dENszzhtJNu2uQtFln+FmNsnG/8AjoOwmE2diI0RUd0wtewlCCNYTyFzAmWlC+blcQomL3dT4EKWNXm+bFTeTFRLdLt9D6H/ACEpaarsR6tc9+9zWhexnsoWugn6VFdiw5FSqoyGgSUsuyKpq7tHrzAW6whlJLBCLsCWWEUROujoLJEmdBORqIic7SZCxSMSNjY2NjY2NjY2NjY2SJSbLV0Hz8AeWouo4rsuSwSndeF1EbS3Jkugmg/izGHwKJ3DwSsRrQkvTMkGqZzmUCk6CCK9OI8Rgm8UhBbrRLzpuchL/BLLC1ZawfVAtnHKqur/AAKWJtWbBcxlWH+uASkl1kakfk28xasoWxf+kCKKwpElkVQ+Q7VeApUlZFUPkFqXCm/Agld31yEzewrRIixioMQle1RgmSRskbJGxsbGxsbGNiES4va82NOi6L0zFCEkUG70PuCPC+WHc17DDY17mJPI+SqlKQGvSJeJkRal1yOLMSka7M0IV8DN8uBQVoGq2cQrC0UuYzOsIy82LbvA9BcASK34OrbWY2F4eAwgW1UJkFx9M4iiyF0bsbKViUBTFNWLp8jUSklsV1zegmUq9xJJb1fPgLZOw4ACUhvlkJJf+i4kTnTBMhLFXF4TAjJJJJI2NjY2SLQ1j96+g8sdB1eYkSIWli4dsxC9hfLGSPV8MPDQ3o7s5jlXbqtiBpLnM+wzLa0HNCSV2t6ZCUD7qCrcK4lgqbbzouDO0Wsy7b6VWJQo4SEMUfhpOD2bMVCBivtBj3B2YsI6rjFBX3eBYCFPfoS1LQJkqHk0F6jJC1aarEJFRGqyJr3dRQSonVZIRH3agzACdAK7RiaxwJrAiwTgRmRjHgjJJJI2PBl/d7JX5CPC1/N5CqFj3ErLQUKa6fUI4I0WfN3wEVpccxHsyDzk66l+HuKXJYv7oxRLQzOwUQkDjUPOwhoPd9D/ALkicpq92cTev40VRrZexKGhqeQmUxftqEScEJd4Q5NY20jbshxVGQjOvLuIZYQhpr2QqwMuIplpC6HOQuKqxA2UQ2Y4ZoULlsWroJGnd2Da5j7A0VY0yYkFCrDzFxw1egmIMbHghJJI2SSTInXHu9OCJSTboSfMyMrnMJzhchFOxQezGoXrL/6PVcduIleaCU3ESWQciEVwbaIuKhxRG7s05Z4JWSFrkPKLpdEXj2IrNb8fkNSQDWw8bC8gQCpL4WYlCEQLDdedYFIyCDII5CEqEh3RxMc2rHgUkKiRTG6PInRMyxKxYhuokO/R4C1SWQ0KfkZ/zw4i1aROiiuJJYewUvKFOPEfDBrOKYx4SSTsfGIbd8scCYqxWPRcsYYfDY5M9iSCJJ61vcV8dpmFK5blTUymXqxJ2YBKLDGk0moTl86CVrW3igmh5PkYmNnptIdK0CUhfliIIIIGRg8IqIwjX7mghkqiuMxPe4sBC1mLGT3ezIs8+Irq4ugiKq21wUGucalhu+aFJXqStaGRkdhab5iITqXY1YF1/wCiVCsCuOsQUJmZ/wAKFoSt2FcvbLNE1xqcHhJOzW+BFr6PuaBhsJixyZ7E1nSlqy2MIQqNbTLBt1hduKKhkM1clZmbd06sikhLfd6Cgx4SUFCilbMyxWki9O2TN3XZLGELBkyc7lKn4/wX50sxCCEkZl1Y9LJ5JcRhIFFFY7DQ3Qrcb1yIkPwCGv0G2lK7zISfdRryi7jxiVr/ANf+CGWEOWY/QIf0qqXsNYJRvGcJxWU8HlRJJNFrKB1pdqSQ2N2+TPYj4izGZ2ilhIwn+7sUoF78jJ+Pv5IVa5vdnEnr6DojZYIXEUpvsXc4vQklhOZDgLVJZCa1IG26/BRZyRk87Bp+5TBiVxEdvFXxHWchaDF1Gxb6HCWOFGmgqaLvPMQjsLMsCqyE2CFyeY3CckNmlcZMc3qt5/dRJQrIYFkrLUZ+LOC1FqVRHE9VnBC5Awk7Mk4NQ4F5nwNROcuwqUuhLIYhKNkkTHZGexJhpfMZYJuqOFZetvPBojbokNqrit/pP18suQuqt6ZER6InND1RVboWQyuJetyXQlClrdYQ2nSuhqdr4mW0VTrmMFlqISIQh7d04lomzsklJTF8JIwiEklk7hPAhapLImsSXeo3Mc2gpVpElKK/EdMZa+4l/wDYY6o8xvWhE/US9J1eDnvmQ03LskPIkROEkk7Cj3PwO7fsaopqPErJU0KAtrzwrUqalVVWzEhLVe2ESgmNX/CGnVIP4cJSPPBWXNjxPkNn9IkrGgXTR6RcVXUqlfuQ0aK2quBbKDICmN3m6kIXd2IQkNUS3nfUEakbyQaJS50IS0Uy4KiOEVEtOq7E+Qs1S2m63CCWVqqi0okm0sSO10ug6truIsqqx24CeKsOGQy2Iuc8EhdByX+g6o/16llJEk5WJFgE7aWPc/BLMsJ5hmJZ2ZbKaklerfggbW6e5YGKCltZFx1dkq3Q4xZb+bIBe9MUU9Msg/zjSiDXjVFWfkzGMJArAsXAFu0/ArO0mSnPnAkg63Igx6NnS41JBtWuEdM8cxvPYYaxLBNHxIhWgtB5yi5S/wABT/7MQjtIXMVVlGslwl1x0HTgIpcYakoKwb5f6N1CSWm4sF5JExdsbQlLM7sFrFCLRbU4q9diXEIyvvjkhjKy17xX7v1BqSwULgupQUkz3jgO2CzRWnnPka0rJJazXh7DVKHQsunGYskOrvzdnj0QOM3RJHpmuYlNrs8zRKFK27IhVTVh9eOcOH9EkuCQ0JOistRmds4LX+C0WkSUor/wjjdRrHwLa9T2FnMdNuxi8krtAoiDPtAhavYQ7ZYtxUrjddv9K/e06CVXsFC3qw5JR+TU4uVUJfAnsPXqyyJJwbScdZjZnuGcjjbuJzXYywlV6j/VP4aillEquZZMOmoSV6sQ5J2di509Xr/rEklDjsIlzyQiXm+eKZ4BYbbSjPIi0zP8pYc/BR5eTkZGS2DKP6lWJ9NqfYyBKVwEUSj1hV45ahtcZdD1RX60WQWEZGVbqstcA5Lh2p1zPfwdTR0uuxzPzJ4ceVxsequ4kCXzE36hC2mv7ErbX8DR0hRstUO6OXHiWQkfas+SEucfwNUJZ7T3pb5dkdg1pz1HJaJsItHotDUmtUGXMzWdOAqrq7Jd9DNcglJETXNlnvr640dzOQ28TUT7lRfoT4WBYQ6RwWS4tils3LbzE8IUySSodq4PPSWpdxcY2C/16jhaQ5raBa4Ew+0GpRMWXyzOo1+qiVFQSw1o2Lk6Xb6Hsav5vITQwi8JCQhj5jMxJqWi/QohCklPesQjqf6DbKYKtYSRqrQZAKEwhJJZU8xQ2UQybqstDjl3/hZaJCla6Gpnc8J+WLVJZGVEqvUi6c55CD3tR5gtkraCHxMvMGX6kfZGn+Cv6K3dqr3Y2JYuvAyjFv4eToWX2IQkL9FhCqGtSoKo4wtUJzoIeFMm30sx5rvLgKFpCeuivx4EM7gQ16vUa0dYq9EJxx3/ANFJFX24EpzyRA2cZf5bBBBAkNMdB5HvzFFbx9UkKKOEK4X9ITcRBsLA6lcaRzwogTLSTNe93qdB0THuqhYUfxGRIF3ZGv8ABQ7l/R5yi765GQuZxmJRviWYwJCQpjZImrd7xS2OO5WrvX9MakTkXVFFSTO6RaqJFYWupnU8uA2OiGdmT6Fb/glXYR4QGvnO70/0eECCWCCCBBBeTcqlb8EfqUYihoqYXVShLGlUBkosKkSUSLqrkHymRkiKcJZEqdlbBogjBKZgj9VhysRBkkcjQAYgkICCpUeTEkiSwgjA5if1gm40hvcW1I3ZC4vfEBYhoV+uWpGBK2PQ4yX1b//EACsQAQACAQMCBQQDAQEBAAAAAAEAESEQMUFRcSBhgaGxMJHB8FBg0UDh8f/aAAgBAQABPxD+baZlsG/2PvLmI92HMI7VNv8AbzDrB8uYggH+vCFcBFFaPp3MMsJ6r4dY75+kV7fem5tPOHkvLnRbxsNDzA6QSJ/XGQ/d+I7W82i5cHRKn3ckcBezGsbN5hBv+tGVbBFTkXvpfgvRmNl7REpjFgvk5f1q81vRfdqX9Iv76XLly5cuXENO/ujabiFIGyk/rN3SSV9s8Fy/AxHEXFkbzc8so7/1nMOKx+18EuXL1uXLlzB82I0jnxKf1mn7Yq7x8EvW5ely5cq64+IKRHE4/rNendM+N8Gly9Ll+BV5wzByj9rJ/WUfNMy9L4NLly9bly5874j9sy/ayf1kB2fwx+18EvW5cuXLlxX6/wARX6Zl+/k/rSv7x8EWtL0uXpcuP3PiOTZfrZ/Wly734I5l6XpcvX2jom/6yLH6dmP734JcuXpcuXLlzb7MU5f1knX6dme+/BrcuXpcuXFfpfxFci/6zWFf7pn7nkS5cuXpely4vc/EecNPqf6yr/Xsz9jyI4l63Lly5cXvTJzPsf6zdp4Wly5el67ndHnM/wCs11+zZjgWXLly5cuXoVLu0B/WV+j8MV6S9Lly5cuXFb7vkjj3r4f6ym/94dMXS5ely5cuKDKPc/B/rKudwLLly5cuXLlxfs6zMzPyH4P9Zp/ftH9xpcuXLly5cuZ9o+ZuYPQ/rKjv/ifecuXLly5cuXLlXaJczNf4JfiafyOS+ee9y5cuXLly5cuP7JHLLP4IdlzE6JILEugJ4YDZ/Ht9bH95FqXLly5cuXodPaS/4J92CiXo6ENZJJPugOn8df1cV9xFLly5fgFzJ6NNn+A83EiaOPAuG2ghDbk6wyZB/jXXe/Ef3kUuXL0XLly5+D+CxYHTRZccxZcuZS+oDWzz/I/jfUH4j+80LjTRcuXL0L4S4G38CQrQvRlxL0uIho7hSmwIL/jOBJ/eRRai0XL0Xo/BCZftZP4HKo58OcS9KtVTrIQ8v4xZCf3kUUXgFy5c/DFPffk/gAgM2+KjOt6mao5lm4uvXb+MIH9qlHeaq2ly5cvS48dx8aMm6fwBWpt8QuXoliQ2lxCOQ/ZuUkcn8WqNMAqci5TkCRvBNBfUuXFjuPiLBB/As2+MU68kWtEe7+yV/FSzbERW775jYG4PpMnUepHM+zmbraXVONQto2d58ThDaeX+A9hDY+MU64NX2z/D3orJZpEv1beAY5y0TelOpmFP/cQEpO78TZiv+Ar202Pj36m43S5UB4fl/ihO7huXeJIRXmDYe5N96LEllOuCEy/gHLS5s8Z1E7tMJ5/J/hFrULtLODQGg3+ikzYh8zEQkAweKg/96iLnx8dTc4scSoT9Vf4NrL5dHegagl6A8SS+rVwaHUYhb/tujdK8XHXOXli3MM8fwkjbQ5ggggiVBG30TqDSEGgxKl/9eZFeM7S9DIpaK/4BGmg2iXKglRLgggjaNvH+V8Cg0BArW/8ArSq9dtHxbTUzgtKzOH8H/c0jQtxb0qVEvUS9CXK+gPL6AhSCBBpWt/8AV8xpu8W2VplO/FqOAcfgf9rQty9KlSpUqVK0JeivoHykKQpAuCVDHgr/AK97QZ8Qsl6C5wccx4fL/wBltpWtSpUqVKlaVK0V9ABWgKgVqVK0C5X/AFG3piv0K4c5v6NDyfO/+i9DmVK1qVpUqVKlStFSpUqVKlStFSpXgFSpWlQa/wCsaW/xb2uTgpy5mP73/wC3UqVKlSpUrRUqVK8QK8IqVKlSpWlaV/w+yCP0c+26b/Fva5P/AJubcX/gVKlSpWipUqVKlSpWitFSpUrStDP12mg0jSNdtMPG9g6HPiFrU5zCbmK/4pZcdLl/SqVKlSpUqVK0VKlSvAKlSpUqV4TH1Wku8Ii3jTT4vE2aYPi2OuShrTt3K/4qcy5cv69aVKlSpUqVKlSpUqVK1rSpWtfTWXeMURpoNZfvMn2nwpem/wAWY672jcT3PmPqX4e5UqVK8VeCpWteCpXgrWpUqVKlSpUrQL0r6Sxp9FAEW2oNJWJkHhHxxjU2MNaXXd9NXRely/Dfiv6VStalStKlaVKlSpUqVKlfSuXGn1VFUQKNtMgwMNh8BpYNvotkNRcf6fa/HejSWjmX4rly9L+jelSvp1KleAL/AOA0jf6YIAA00G0vRbZEcvn+XgFF0WcPE512aiq6+KuNI3jbRfivwVK8dSpWteGpUqVKlahcStK+s08CGn0RFBYYXQuXLlCMYrhl3k1P336F0cw1oVd35PA11TaXL0vS5fjvx14a0qVKleKtDOtf8MRr9JEAEwt2hpHuwE2LpR+5qZjfJ3J5Sxa8BiOk3znF9NcIZHj3OpqLlz6n3s0sNo3jaXL8N63rf0a8Vy/ppUD6zTQa/VRBABtW5uboIzeW6+Gy8ieRnIr93lYAKMHQwQaTiWwlK7zCO576Llyh7xVDoOpkceMZZegzpdtC31XLly5cuXLly9L1uXpfhuXLl+G/EFxK/wCBp9AEUb6LbUG8yjlbvSU/ebZ9k95YOiEp7t4LEAwBQem2uliPMam5COQgASXLhRGUQ8jq7bNvjxXU0y5U/gkX0FpcuXouXLly/AXLly5cuXLly5cuXLly9Ll+Bf8ABu+iCADTwAbQfPGRnYL7DiJ8yfsr7Eqr6Rj79ZWhRy5Xf29qly1HlL1pXqmu7NvjNLU7yo/02+ktC0K+Kgb1r8AuXLl+JF6Lly5cuXLly9Lly4NaXL+hfgjT6Coo21RtGAMsD5/b7EGWbDV5c/j90NTI7vPnO6VKjjUd6b3n7UGVB11qGecdTQ8ybHx70qVDvLmLeZ4IjegpC2oU8QL0XouXLly5cuXqXL0XLly5cuXLly5cuX47+qCAgFFuJN4uGPNSLNnQ7Xe+Vj1Kxlb+zBFSvGgqUlD0OlTYt25eCDUpUeFd019lDY+Pe1O+g0jABV6FoNDEvW5cuXLly5cuXLly5cuXLly5cuXqXL0XLly5cvS5fhm0aRrGv0kFAGkr3jZABlNDuxzhdx9DzNQwuGooDltzk7mwd4bWtRV6lNG5KlaJXgQ09t+ZcGZiN1fYfa9zFKpu9vubPtJSCjgDAHlrutNnjOob6LUQRGpz8zyGECBela1pUrS9L1uXrcuXL0uXLly5cvW5ely5cuXL1b8ZAW+oNo20GAYMxckd7V97PtcBXxsn+s7wBBwwHwixG4Nf0H9eYV1FKDM6DfuqwB2vsDwLeheACtQZimce9nyk4Auin9yz2mL7DcfAvKj5wqHpGL7vMu7bzy1aoXY5PHhqGrKtI0ALvHcqVKlSpUqVKlaVpWlaVKlfSrw34LlxrqNY10G3gEaeEAcN2Z3pt7g2hyvOmv0nSHlPYA0DbQJRSymHyUgZXO5PREjpKEF601BafoaV4A1AmXlEVA2EoB0IWnlqy+Av0HfriixQVEziU+AGMfmAeZbxtUqVKlaKlSpUqVKlSpUqVKlaV4K1uLWhaGniBrbQbRRbhbpR/wDggod+Py2f2oqfDvy9y5WDDmbG67BayjTbHLou3jszKhsP0JJUJRVTjoiTLyXu5itf1JWtQSnXrsGWgOtyw3zMe0EE/acQLlb8x1W7ZmvgNkVK8RyanEWhx/4NyBhU9SE2hgagU0tIu8LfTjCtFaVKlaK0VqVqqVK1WpeobRpoNtQaRtLi3FhbsSqjgtz2N2O9k4r9kEYVbh+uiujqMEwT92avl81HyhNVpuynq/ipjp2dPJ+/vBUeflYAPX3xFk6/I1qEmBlNDu7Eo+bd8fmhrwlsGi4Alr5uCbof1DNQxLb+xoqJWDeBXgGL5/Q46jEeXTc5ZLamJqikDt+DNpYRXgIpKNyBs8ArWqVKlaKlSpUqVK0rUrSpWlxxFGmgtaG0bahRblxpAyYJQ90AmPo6WvneyXJd+Ts2iwFYAtXAea8eswmem0/s3g85cEnTMeww9ouG3kwjiZD+tSo7Dz+xhLo3HZyJZ5vwIrXr8iXpl9BjYtsd4mOiYPvFV31Mv2LgNCr3WYVNQGPONoHQ4yvWCt5ZSvEZog0PDUe59A7am4dLHKNihw7nEpbWdItWHuSgpnzm1v3m8lSmxlSpUrUBYEcStalSoHeuyLXkQ4RF7H2DMBGvbJ1C1FwJUrSpUqVK13Li14AKLcUaRpqNotxalwpbKDKtB6yuotL/APWeQS/bgRX30lG0ZSr3prvfiCwoEcp7bavnBZW26bYsKmIJ7QCtM293/J+19DT9fxO9fHYaXKCbfEjFbdfldeZ9JasBUpEpcGD9d25X2fK2PXiWIEdZEA7ExW0SouTqEeRPIyIK8pjyI/Qgijxb2jh8XHUSsulh+tpfnl0VzL4hnaW77zG4U3PMmzv4myRuFza3SpWotkdhGxlSpWlS0C28Ri1Xd63rdEvCIp9QK0w9az8CJUvyijBb1I74faoMR+TMqVK1Wo0l6hReACi3Lly4wJgyy+7nT8Ge8quhGp+UHABsFB2nJN5vq4gfceej1b+yZ4iUwY4OkejxAM0Q4r0+3w3+vnQ6/bxLEySULLcumP8At6mZevzMrQN01Y6RQr6X5YCYxUxQtfWIHYNpRQZ/BBMIUw7hN9uw5ZE5XFyOkQMY2Gef/QK6Az4uOpuVS05ay/4TN+qJnHcq9VmOg5wuJlVwCAxsd4BpJhHDz3mNcvOGS/cnmJN2xDO2la3BRWl61K8vPVJ2dyWsUOVX7sdI2pMl6BsQLiEXP3rKfvGmrRTfhu3CUniMW+2WXpcvUFFqKNNQUaeIBgYsMvtmv8iL7BnOhMuA9nrBxzbD9gZZZjLwOR57Owz5wmmj57u763CJWcXeCqyC5s/3ZTQUXW6RJ6+43K5+T/q10qU1FVdBmtrYSFenSuUtfBePAhfsSpuBeIL9iUhtpcd3lMu909u1tA+98cQFfROli+I4NRO7oNvLHuRACjx5I7tltEAW1jmoNBVDQHHjyloPzMX0lThFkICFwyr/AKCMYo8yZFj8zaWdNNpfDcVYgu8EfDUrobFrHwgbbCZ9MNtZM96ZU43rbbzgSNKMQURF2uBQRsdnQtxeABeABRbi3oLewMK+3sQzHkl5c/h98oVbuefOTLGROo9e272pZZ5n3PTJ3fZEVFhuLuMsL2ioXFweJQWKo3Ye9L413bsfKVadkN9+bvl+ZpUlYjK4CseurBLL6HMem7m50QW6CdbweS64JUAsMG5TL1zvAOQlDHhwHdtCg+XWl37sJSLbBKDh5fV2/wAW2VobkyUq9nw4RCbYhLm4AzAUlpat1i18ELtaccIR1vKxluZp1YGLntfFl+basXCHax8rlI75rJ6TaHwY5Q15OIL2m5Znk/gvQa2gt/HGYNTbYdhUVdAYXh8lbcP7sLUp0Mk3QtFWxpGn0gAAGCNwvOPJ8EXpej5/vuzfneNb7dCIkA3TQ9YMO3YWZwbT7JldPDcPlx2ghrbW/OEbk8hGG8XChQgN8/6IQvC8uWpWPJ1Apnr/APDDf799KzPgyLagyUj2PeNd7gdkMAnLueZuL3h9jLkrbUrVXYHot0TeVf24g+Xe+T8zMGd3P1SXpv8AFka3ThpCkFDX5lqEqWQIIBgB9iGc8MGBncHGgMcdLRQBedMbANyDkG1E7esQ2KxYqCYtndJs3Z0cziX3EDMbOs2BhzFQdnhqbbAdyoN6NJdH6oAAABPLHKQDKUJ5oAVfImmSXH+BPeVUSDWZ4Lz/AMDM6g22drI9W2WqE2AwRMnWHcO7n6HoShx/+wiokz1MM+SKoA+kSgIihcXLeII9HG5mXkfNoZiptGWivSCtc0NrrEeQuiFXW9b2EClaLQcYDh5xyU90oI2esjo+VhlJfdXE/Xnb0JX1zbKvEdFQ2oKLSC2pcJvtbNQHBgy9WIuBleCNDJdcnmsHij3RL3gbqWNW4uQhW1Ac5Pricmrx4EFugCAR+TgsMwG8tptKDwyhIUh2Vh9NpiKnU0ITltNwLm3vhuW2QXMrDbQb6LbxgALQvKzUuVjumP1eBgG5NrPuXuWEAANgMehHa9v+XYm9qHg+7lmBfpcDcJ5A+HrziuGv17EqPU/CGK2e5MRwpPh5Zkd8ziI68RTqeelh2I7oy/eKzkCulNxBcpGu7UIFdhFNnJestSNKegNHk88y5hhy4veiC3UYiog4/gweuGwwHdgoCg4Mf8IuoN/RhbgqBn6f7hUd7MY2ykfE2EZWWaegRmKi+x1hSNGlGW4ewui2DHAz1CD8jD1OF4FBaYJRWR2kpxOIcOF8CBaYF/8AOJUiab3sgfk0C5K+cEhvk+bE2DuQy7deBNuadGJxd+e33htZOQm6Yi4aLUUWpeAY3jSNo0jbwgDFKGV4JnZxZH1bRTvmXS972QmZcCkwDb4GV6H5qKrW8t7fjPvMHxcAUgT9T5whvQjuSkfOAqsBggunZoDXc/BL5Q2BTkyqKjKhovNHlBlxKftTZKABg+0q3B7sCo1586XPV13gBtt8oI23lFBuXysSBm2X/gEEC+Fav3mC4jtiYQAHLzK/4qaRKsYK8OWqxTIihUCP63AXKqJmeyB7kI8+bkWLeDjrCrQyYl03d15YsJi6dYBNeq8yu3YU2P5Y9fVC6MTfhoh4oiN+W6w5YlnhRETrdfmMLcqyFCMNlPKjz7x96ByzOlv6DFbaOUPMm9hibI/JKwoootQGN9DbUKLcUxDXalfaTYOzmsPsCGDjnq7u6zDo93sbstzXgcv591iSXbzP5CKbSjrNs7rjsPOC+x+cozwnlSlI4ueITyH2h4Z0jupmnq5YaVxN94uHry7+rsQiITPhR1YKrjlL0cRWI8HwbmXGi26z/n7w9wHqfU3gWDzUr/ldebTrwbalSpgpctD01EZBjKToCszJMCwB9iMg5MSVI+wJjSBvsb0QlEcJgALwLJXJK7t6LMokDjDf/hFlqF6Ba6DtMy28vLKn24x5zYRzScZkq5t6RuKFrHN/HvpM49HYHygCoAG8O4XAyfaFqHYHM52vR3+8wtn57aHUi0FFqWeEDbRcPBAXqk3HHQCXQAbrgJnh9f4N2MICnyPA8R0q2roo0BoC1jdaKyz9nyYdqi4eSA4XdcZMxwbJ2gTaqvVIB9SwHEcwYUonY7xmON/Ey+b57EMmXYVtvu+hCpw95se40bgPdNCJIKbhR+aGm/mzHZwShTy+Er/noUx3TLYlaVHcqVFTgtsYNXm3eqICRJvgOd39er1hi7PMusd2lR5oeVAlHCWTaT2gIRoVBGGV5IWPk4+0hsYoOA5je9+N1KbtgipCBSACjgI2xeg27rM3rbbgwvaAxDXBUW7HYEGLQ49fywL9fOU4Je0ls2m1MfVXeBC7oaqCI8hl7k6zOjD24eku4oootQvqLcuXHmeeiZLJBwKNjaJFgBy4ruwCtCG1vRlOlZFASD+3oxtqM0zjKo7lTGe6+xPSEl3c3vGdjqlEpEowYrJnIvSCKFEoycQaWoQ3RgLKkrNleoLS38vf4OK34sXo8yoOJtghIQDglf8ASYi0jG0rGkEaSoMBZhrmlm+FFHGUVERGwDuS4NwLC1y40VLI7Jf0L0FQnrC2uVFFo5BgS9RFpBSYC0KFgmu5XsQ1HONUDN+kyurMvUyMqJlyL6mFCbLB7HaOqCPTCW3MJy/2A8Ciw46Ex1KMHjzZSY/9SMwnh2620Ps/TqmOx3KGx3TiRbii3Cui5cuXB2Gh33nwQozn5iXLWK48D1kNwv3fKGXkFFimUItcqMeUHWPgh52RsgBRVV0j14+6DUa+dRKbHiWQu2Vt8UYCGey7JlIgbohllWNdeX/aQpibtEuCCLULFmHoO0cHmyDulYnWgIS4mDghg7y8i6ahVBveVEWDqEUd30c+sA3tbrB3I7lOY8yU6ebkiKioBzylsWUCVH6h/rFXzwjF3KnMX9TYOQ/lmetyHqwukpcD4y4873UdeilebFtrwQ4uxLuior+2ITahtYXDtNyk5p0yxdo6E2zuTnNC5ei9Fy5Q+pFiL9jgl2I5ZWrywNMHDrhisQ3lMJI7le/+MLrl288xsYjp/wBgQAmdCjqy9Qt6t5egXKtvO37G7LOfpv8AjSzVV6tO8ynrzbsfwCDhgEbkRXSMLYd2KOv1VwOvDoxMl2FDwsKGyFzQGIZb2YP7xjxg2FHsQAm/CNz6/AhmPkzee75DBJ0TeeYFZvScQlxApPTclE1g+V9pUTNCvVl2k7PglrwfO7/yRqqC2K4oOkZCUKqPWXSCiQD0CVpXFGDzZZ/atcD+YAAoPQIcHP5kKMLmvttf+JRqDB+WEgyB5K7EErHHPZ7MK6XK0XLly9S5e9DMV/ao75u6iolOG9yO4P3gZcIeYMR3IH2uFQcSf3/iRugUryVjdG/PiZPN7Ef7CoeJvjD81LjFgMq0HrG/nZ12IEne49lkJR+WcECAMB/CZMUi1RVzv7RsFuBcYr31v/oRiyjjCppJgcGLMJZWGDxAu5pO+82mhvy9Vhje6UKpajfMIhsEUFF09RAP4778kK9C8TkeS4Y0DsqjtGKjnysEm7V/oKBNqbLq8mGBSAUBsSqYB4ZE2pdknLQgE42+xy6Rqsf2m8AvQc8rqwXXpviBmq4rQvAfmERL5fg6BwcQOAG7x6ssQ23zufl4IXEARb4BKQ4ZfdTRfgFy5cqXnBr93EXaFFvUMGDYjcGCM7e+RJcpa1HCuK5fvHbo6+CYxoIywC3g7JzO/KCKMEVXFEKzu0ir1dyUhhlLi61fWIFen/eBPJPMPegAADbAwOgH8QTiOhhlulXhwP8AY9/SJL8/P2faZruyC1YJw4hojFeFSooSzZILShpGXzLMJ3JQesU9d2EQ2IxX8S4ESrWLa3qy5T9rEjZg1HFzH9sy/liZV3sc9GWLvS//AEJSz1wErhHzzB6s7erBodsPkjtKbV+wIeooGtgbCYolOHQ6szuguSCr8f2vHeIGzsOrLkAt3jEv/rkf4iA0DcwuOA48mOfUlt0dF6XL0uZnK/V4hlRnPEAfQxC07SgHTbyiA+KDB8cIAAqjghRgvO6/yCJRe7y8aiF5mOAzeXmHgi3whCcu8wikDdSoYpz15/jAKBlWX6v9lMb4ffaXbR2SS3pjshcxnUg2GA6AsUhayXX3A+8LCFAfLapVWw4qychWX7QtuKg1oaXmrvqTKMbDMEUwU/pc7KYavvx7QwNhCVfc0PDMylVDbGR1jJcKOrFNy6Zw6Q9Lff8AyI9tCtwVVsEZCKUpWbv+EQQwA9AjYeCnOzlgBJ5IP9xgOBPOkXLl6XL05+kdJ0+El8gtrWFiI5NgJyvo/LKMAdNpU0rqbf8AsztWcsvp00rRgUuV+OsMW/3D/CipvWZesQt3nY7H8gIpBJkvzkyyJ0ZIFTHbP3ld23UxGl78TYmKYiAZ6YOd8weogDCiyZNxDdK1d2wWhwl3bECi2xRQeZ2ly46lmUcHBO8Cdw8Kbg3IR91GDBpWhpDdHDFjAN+CNmcUnESiXM+Q/NgmigHkATLQnrdTtKnLmv2vV0QN6EAgPqOZ8IBunyvQ7OXmbjJldX/Dg4i6MAdlDZNXGtQyN/q4JX/lX0g2F58vrGaFv2HdmZznHCWJlauyby9DKkA3VoO7tEVe3+ZhhdxXns7CVuR6djvAIAA4lfyNaZKqepM7uP3gimw4Evm33CMtPOMkoLWA3o6pBK3u62ocKwvC0W4zSnPX2G8p8A4y99yOgPRkEAyOyZGVoR4RMHCmObHNTBAD6PuV3WJsh4b9pcIVvi9us3CfuP8AhxBwCWenq+cBKVjkt8xGLhV09CJ3v9ZhuV10HKqO6dU7q1S9K1pXLzaC9BvGcrHTz3Y1DRZQNuTNwlX2Fr1mMG0rvAuXPd2r7gS5PwavyMp4cRUsJpp7/wAwNQmUwRhBXeWi+iI2pV03+0VIInE2xhMLyshNQq9Hgme1r5AB7o3D2i+jDEbx2V7uz4m0e2HS42WHkS5qg8nyEPmCDDB5B5EbhhfY6sz4kusopTwRg4PT/WNoDwYAra6T36EU2zNt07v8HEZmg+70IlRcdG4eIU3+mh5EqDrMsKlSpUC2VHfI1IF1Rodl5i3f2PKPNExytwOjXny93eCzb0SBJdMHfeL9iZ48I6GrQ9isoX2o5u3h7zwQQXlfuO7CsL6kr+bBoXLTZ8o80i4PzbQ83TlYYLL7ibMxpAURQvcepzTLAR7smXQY0KlnPOdV1TKhwtw/mf6lBilVmLgn+xbmUY0AnX3D0YsxO5wjY7RNjQB6CEtO4SULByK3t7g890KygARUPMlyecqVoabzsT0QzDEV3JZ/aPkSlvyjfu7r3uGvOl2htojJAjkLWLr3Yu87nvJM7rE9Hiemn4JX89USymbwjcCw5IuIPMiKx9IWp06k5au8GL4X0DgJGwF0yssNqzphO/T/AFjiu8jfg/MxZgHYCL1gU6vqwoOJVePL4DiH7QUEPsahxroQZRzBw6s4zN+S84jCrwbdLmXYZQiVxYt12GGJ5we6UG0/qv2n8w3sP/oG8aQV7rd6tAuOuoWCCArgN+K78REo2Hb5q8xP/Bt7cEGAHlEFDQcEr+hg5w9SXoWe84T6MYR8w2+0zXvldzebbNpIGGy3S3kbLFtzWnJ52CjQSgqGZ7EO3D5Jr8E+FEtKzNzKT4furcd3tCoDC64HCIblz/2YkE75LRma9PlMEecbZWgtC2jSDMUhU29w4JdHxNR6+ZRRHYYlKAdeX+kH4RcnZ0jtIkyGXowzYwjZAnWbFHQ/sI/DdfIpYWzwOCG6HeG+kK4EGDY7BLsFX/sxeyq3A9V8iJJVDDnO682JrQMdViW99fAIvyZIdxwrBKleAKE5S9iK2i/PP+Uq1bnIvXdldsOZ8Sv6WApyQ2XGfchdIdXf7ynYPVFVuuvE2Ni1dJRzqIdvKn199XggTa0Dt0gELttXi47feOAAqvAEZL3gnyxYfO/F47oFbQFAafu08QG9JfN7BK7s/CAADAf1DYMM8/8AMgdJOiRhW33H4n3oDJKwWmX9nhiXhcU5+8DkAAGwEbsOstCPNXIGAWBFpM3qYssb1y0VbSsgEoP6puJXmYl/uIpUku0t64fcmYfY3+0wpSc90ycyps872YYFBEvXLzdSiCY/rAFCPu/SNYVB8PcTaGdmBcijPiPVyxWI66GIN1f64ApmwWTcA+0EyB94U2wN2dFobdgV/K//xAAUEQEAAAAAAAAAAAAAAAAAAACw/9oACAECAQk/ABXf/8QAFBEBAAAAAAAAAAAAAAAAAAAAsP/aAAgBAwEJPwAV3//Z;" vertex="1" parent="1">
          <mxGeometry x="156" y="370" width="200.08" height="184" as="geometry" />
        </mxCell>
        <mxCell id="UxzNV3jaF2v7hfYQcQ_6-2" value="&lt;div&gt;VPN Server&lt;/div&gt;&lt;div&gt;Wireguard&lt;/div&gt;" style="rounded=0;whiteSpace=wrap;html=1;" vertex="1" parent="1">
          <mxGeometry x="-290" y="370" width="120" height="60" as="geometry" />
        </mxCell>
        <mxCell id="UxzNV3jaF2v7hfYQcQ_6-22" style="edgeStyle=orthogonalEdgeStyle;rounded=0;orthogonalLoop=1;jettySize=auto;html=1;" edge="1" parent="1" source="UxzNV3jaF2v7hfYQcQ_6-4">
          <mxGeometry relative="1" as="geometry">
            <mxPoint x="-170" y="400" as="targetPoint" />
          </mxGeometry>
        </mxCell>
        <mxCell id="UxzNV3jaF2v7hfYQcQ_6-4" value="WAN" style="rounded=0;whiteSpace=wrap;html=1;" vertex="1" parent="1">
          <mxGeometry x="36" y="370" width="120" height="60" as="geometry" />
        </mxCell>
        <mxCell id="UxzNV3jaF2v7hfYQcQ_6-9" style="edgeStyle=orthogonalEdgeStyle;rounded=0;orthogonalLoop=1;jettySize=auto;html=1;entryX=0;entryY=0.5;entryDx=0;entryDy=0;" edge="1" parent="1" source="UxzNV3jaF2v7hfYQcQ_6-5" target="UxzNV3jaF2v7hfYQcQ_6-8">
          <mxGeometry relative="1" as="geometry" />
        </mxCell>
        <mxCell id="UxzNV3jaF2v7hfYQcQ_6-5" value="LAN 1" style="rounded=0;whiteSpace=wrap;html=1;" vertex="1" parent="1">
          <mxGeometry x="356.0799999999999" y="370" width="120" height="60" as="geometry" />
        </mxCell>
        <mxCell id="UxzNV3jaF2v7hfYQcQ_6-11" style="edgeStyle=orthogonalEdgeStyle;rounded=0;orthogonalLoop=1;jettySize=auto;html=1;entryX=0;entryY=0.5;entryDx=0;entryDy=0;" edge="1" parent="1" source="UxzNV3jaF2v7hfYQcQ_6-6" target="UxzNV3jaF2v7hfYQcQ_6-10">
          <mxGeometry relative="1" as="geometry" />
        </mxCell>
        <mxCell id="UxzNV3jaF2v7hfYQcQ_6-15" style="edgeStyle=orthogonalEdgeStyle;rounded=0;orthogonalLoop=1;jettySize=auto;html=1;entryX=0;entryY=0.5;entryDx=0;entryDy=0;" edge="1" parent="1" source="UxzNV3jaF2v7hfYQcQ_6-6" target="UxzNV3jaF2v7hfYQcQ_6-12">
          <mxGeometry relative="1" as="geometry" />
        </mxCell>
        <mxCell id="UxzNV3jaF2v7hfYQcQ_6-6" value="&lt;div&gt;LAN 2&lt;/div&gt;" style="rounded=0;whiteSpace=wrap;html=1;" vertex="1" parent="1">
          <mxGeometry x="356.0799999999999" y="440" width="120" height="60" as="geometry" />
        </mxCell>
        <mxCell id="UxzNV3jaF2v7hfYQcQ_6-7" value="&lt;h1 class=&quot;a-size-large a-spacing-none&quot;&gt;&lt;span style=&quot;font-size: 16px;&quot; class=&quot;a-size-large product-title-word-break&quot; id=&quot;productTitle&quot;&gt;GL-SFT1200&lt;br&gt;&lt;/span&gt;&lt;font size=&quot;1&quot;&gt;&lt;span class=&quot;a-size-large product-title-word-break&quot; id=&quot;productTitle&quot;&gt;45€&lt;br&gt;&lt;/span&gt;&lt;/font&gt;&lt;/h1&gt;" style="rounded=0;whiteSpace=wrap;html=1;" vertex="1" parent="1">
          <mxGeometry x="196.04" y="300" width="120" height="60" as="geometry" />
        </mxCell>
        <mxCell id="UxzNV3jaF2v7hfYQcQ_6-8" value="Weißhaupt&lt;br&gt;WAB&lt;br&gt;Modbus" style="rounded=0;whiteSpace=wrap;html=1;" vertex="1" parent="1">
          <mxGeometry x="680" y="370" width="120" height="60" as="geometry" />
        </mxCell>
        <mxCell id="UxzNV3jaF2v7hfYQcQ_6-10" value="&lt;div&gt;PV&lt;br&gt;egal welcher Hersteller&lt;br&gt;Modbus&lt;br&gt;&lt;/div&gt;" style="rounded=0;whiteSpace=wrap;html=1;" vertex="1" parent="1">
          <mxGeometry x="680" y="440" width="120" height="80" as="geometry" />
        </mxCell>
        <mxCell id="UxzNV3jaF2v7hfYQcQ_6-12" value="Switch" style="rounded=0;whiteSpace=wrap;html=1;" vertex="1" parent="1">
          <mxGeometry x="520" y="555" width="120" height="60" as="geometry" />
        </mxCell>
        <mxCell id="UxzNV3jaF2v7hfYQcQ_6-13" value="...." style="rounded=0;whiteSpace=wrap;html=1;" vertex="1" parent="1">
          <mxGeometry x="680" y="554" width="120" height="60" as="geometry" />
        </mxCell>
        <mxCell id="UxzNV3jaF2v7hfYQcQ_6-14" value="...." style="rounded=0;whiteSpace=wrap;html=1;" vertex="1" parent="1">
          <mxGeometry x="680" y="630" width="120" height="60" as="geometry" />
        </mxCell>
        <mxCell id="UxzNV3jaF2v7hfYQcQ_6-16" value="" style="shape=flexArrow;endArrow=classic;startArrow=classic;html=1;rounded=0;" edge="1" parent="1">
          <mxGeometry width="100" height="100" relative="1" as="geometry">
            <mxPoint x="-70" y="580" as="sourcePoint" />
            <mxPoint x="-70" y="240" as="targetPoint" />
          </mxGeometry>
        </mxCell>
        <mxCell id="UxzNV3jaF2v7hfYQcQ_6-17" value="Gebäude" style="rounded=0;whiteSpace=wrap;html=1;" vertex="1" parent="1">
          <mxGeometry x="300" y="60" width="120" height="60" as="geometry" />
        </mxCell>
        <mxCell id="UxzNV3jaF2v7hfYQcQ_6-18" value="Server" style="rounded=0;whiteSpace=wrap;html=1;" vertex="1" parent="1">
          <mxGeometry x="-533" y="60" width="120" height="60" as="geometry" />
        </mxCell>
        <mxCell id="UxzNV3jaF2v7hfYQcQ_6-21" style="edgeStyle=orthogonalEdgeStyle;rounded=0;orthogonalLoop=1;jettySize=auto;html=1;entryX=1;entryY=0.5;entryDx=0;entryDy=0;" edge="1" parent="1" source="UxzNV3jaF2v7hfYQcQ_6-19" target="UxzNV3jaF2v7hfYQcQ_6-2">
          <mxGeometry relative="1" as="geometry" />
        </mxCell>
        <mxCell id="UxzNV3jaF2v7hfYQcQ_6-19" value="&lt;div&gt;Optional&lt;/div&gt;&lt;div&gt;LTE&lt;br&gt;&lt;/div&gt;" style="rounded=0;whiteSpace=wrap;html=1;" vertex="1" parent="1">
          <mxGeometry x="36" y="460" width="120" height="60" as="geometry" />
        </mxCell>
        <mxCell id="UxzNV3jaF2v7hfYQcQ_6-23" value="Datenbank" style="rounded=0;whiteSpace=wrap;html=1;" vertex="1" parent="1">
          <mxGeometry x="-430" y="570" width="120" height="60" as="geometry" />
        </mxCell>
        <mxCell id="UxzNV3jaF2v7hfYQcQ_6-24" value="EVCC" style="rounded=0;whiteSpace=wrap;html=1;" vertex="1" parent="1">
          <mxGeometry x="-580" y="214" width="120" height="60" as="geometry" />
        </mxCell>
        <mxCell id="UxzNV3jaF2v7hfYQcQ_6-25" value="IOBroker" style="rounded=0;whiteSpace=wrap;html=1;" vertex="1" parent="1">
          <mxGeometry x="-580" y="310" width="120" height="60" as="geometry" />
        </mxCell>
        <mxCell id="UxzNV3jaF2v7hfYQcQ_6-26" value="etc." style="rounded=0;whiteSpace=wrap;html=1;" vertex="1" parent="1">
          <mxGeometry x="-580" y="400" width="120" height="60" as="geometry" />
        </mxCell>
        <mxCell id="UxzNV3jaF2v7hfYQcQ_6-27" value="" style="shape=flexArrow;endArrow=classic;startArrow=classic;html=1;rounded=0;" edge="1" parent="1">
          <mxGeometry width="100" height="100" relative="1" as="geometry">
            <mxPoint x="-920" y="520" as="sourcePoint" />
            <mxPoint x="-920" y="180" as="targetPoint" />
          </mxGeometry>
        </mxCell>
        <mxCell id="UxzNV3jaF2v7hfYQcQ_6-30" style="edgeStyle=orthogonalEdgeStyle;rounded=0;orthogonalLoop=1;jettySize=auto;html=1;entryX=0;entryY=0.5;entryDx=0;entryDy=0;" edge="1" parent="1" source="UxzNV3jaF2v7hfYQcQ_6-28" target="UxzNV3jaF2v7hfYQcQ_6-25">
          <mxGeometry relative="1" as="geometry" />
        </mxCell>
        <mxCell id="UxzNV3jaF2v7hfYQcQ_6-28" value="Handy" style="rounded=0;whiteSpace=wrap;html=1;" vertex="1" parent="1">
          <mxGeometry x="-1420" y="260" width="120" height="60" as="geometry" />
        </mxCell>
        <mxCell id="UxzNV3jaF2v7hfYQcQ_6-32" style="edgeStyle=orthogonalEdgeStyle;rounded=0;orthogonalLoop=1;jettySize=auto;html=1;entryX=0;entryY=0.5;entryDx=0;entryDy=0;" edge="1" parent="1" source="UxzNV3jaF2v7hfYQcQ_6-33" target="UxzNV3jaF2v7hfYQcQ_6-25">
          <mxGeometry relative="1" as="geometry" />
        </mxCell>
        <mxCell id="UxzNV3jaF2v7hfYQcQ_6-29" value="PC" style="rounded=0;whiteSpace=wrap;html=1;" vertex="1" parent="1">
          <mxGeometry x="-1420" y="360" width="120" height="60" as="geometry" />
        </mxCell>
        <mxCell id="UxzNV3jaF2v7hfYQcQ_6-34" value="" style="edgeStyle=orthogonalEdgeStyle;rounded=0;orthogonalLoop=1;jettySize=auto;html=1;entryX=0;entryY=0.5;entryDx=0;entryDy=0;" edge="1" parent="1" source="UxzNV3jaF2v7hfYQcQ_6-29" target="UxzNV3jaF2v7hfYQcQ_6-33">
          <mxGeometry relative="1" as="geometry">
            <mxPoint x="-1300" y="390" as="sourcePoint" />
            <mxPoint x="-580" y="340" as="targetPoint" />
          </mxGeometry>
        </mxCell>
        <mxCell id="UxzNV3jaF2v7hfYQcQ_6-33" value="&lt;div&gt;evcc.gebäude1.xy.de&lt;/div&gt;&lt;div&gt;iobroker.xy.de&lt;br&gt;&lt;/div&gt;" style="rounded=0;whiteSpace=wrap;html=1;" vertex="1" parent="1">
          <mxGeometry x="-827" y="310" width="120" height="60" as="geometry" />
        </mxCell>
        <mxCell id="UxzNV3jaF2v7hfYQcQ_6-35" value="https&lt;br&gt;verschlüsselt" style="rounded=0;whiteSpace=wrap;html=1;" vertex="1" parent="1">
          <mxGeometry x="-970" y="100" width="120" height="60" as="geometry" />
        </mxCell>
        <mxCell id="UxzNV3jaF2v7hfYQcQ_6-36" value="verschlüsselt" style="rounded=0;whiteSpace=wrap;html=1;" vertex="1" parent="1">
          <mxGeometry x="-130" y="100" width="120" height="60" as="geometry" />
        </mxCell>
        <mxCell id="UxzNV3jaF2v7hfYQcQ_6-37" value="Node-Red" style="rounded=0;whiteSpace=wrap;html=1;" vertex="1" parent="1">
          <mxGeometry x="-580" y="480" width="120" height="60" as="geometry" />
        </mxCell>
      </root>
    </mxGraphModel>
  </diagram>
</mxfile>
